<?xml version="1.0" encoding="utf-8"?>
<!-- Generator: Adobe Illustrator 15.1.0, SVG Export Plug-In . SVG Version: 6.00 Build 0)  -->
<!DOCTYPE svg PUBLIC "-//W3C//DTD SVG 1.1//EN" "http://www.w3.org/Graphics/SVG/1.1/DTD/svg11.dtd">
<svg version="1.1" id="Layer_1" xmlns="http://www.w3.org/2000/svg" xmlns:xlink="http://www.w3.org/1999/xlink" x="0px" y="0px"
	 width="100px" height="100px" viewBox="0 0 100 100" enable-background="new 0 0 100 100" xml:space="preserve">
<path fill="#4D4D4D" d="M95,90.943C95,93.461,93.781,96,91.05,96h-80.11C8.208,96,5,93.461,5,90.943V18.041
	C5,15.525,8.208,14,10.939,14h80.11c2.731,0,3.95,1.525,3.95,4.041V90.943z"/>
<path fill="#FFFFFF" d="M90,86c0,2.762-2.238,5-5,5H15c-2.761,0-5-2.238-5-5V32c0-2.761,2.239-5,5-5h70c2.762,0,5,2.239,5,5V86z"/>
<g>
	<path fill="#4D4D4D" d="M35,46c0-2.761-2.239-5-5-5h-6c-2.761,0-5,2.239-5,5v5c0,2.762,2.239,5,5,5h6c2.761,0,5-2.238,5-5V46z"/>
	<path fill="#4D4D4D" d="M58,46c0-2.761-2.238-5-5-5h-6c-2.761,0-5,2.239-5,5v5c0,2.762,2.239,5,5,5h6c2.762,0,5-2.238,5-5V46z"/>
	<path fill="#4D4D4D" d="M81,46c0-2.761-2.238-5-5-5h-6c-2.762,0-5,2.239-5,5v5c0,2.762,2.238,5,5,5h6c2.762,0,5-2.238,5-5V46z"/>
	<path fill="#4D4D4D" d="M81,67c0-2.762-2.238-5-5-5h-6c-2.762,0-5,2.238-5,5v5c0,2.762,2.238,5,5,5h6c2.762,0,5-2.238,5-5V67z"/>
	<path fill="#4D4D4D" d="M58,67c0-2.762-2.238-5-5-5h-6c-2.761,0-5,2.238-5,5v5c0,2.762,2.239,5,5,5h6c2.762,0,5-2.238,5-5V67z"/>
	<path fill="#4D4D4D" d="M35,67c0-2.762-2.239-5-5-5h-6c-2.761,0-5,2.238-5,5v5c0,2.762,2.239,5,5,5h6c2.761,0,5-2.238,5-5V67z"/>
</g>
<path fill="#FFFFFF" stroke="#4D4D4D" stroke-miterlimit="10" d="M52.5,19c0,1.381-1.119,2.5-2.5,2.5l0,0
	c-1.381,0-2.5-1.119-2.5-2.5V8c0-1.381,1.119-2.5,2.5-2.5l0,0c1.381,0,2.5,1.119,2.5,2.5V19z"/>
<path fill="#FFFFFF" stroke="#4D4D4D" stroke-miterlimit="10" d="M75.5,19c0,1.381-1.119,2.5-2.5,2.5l0,0
	c-1.381,0-2.5-1.119-2.5-2.5V8c0-1.381,1.119-2.5,2.5-2.5l0,0c1.381,0,2.5,1.119,2.5,2.5V19z"/>
<path fill="#FFFFFF" stroke="#4D4D4D" stroke-miterlimit="10" d="M29.5,19c0,1.381-1.119,2.5-2.5,2.5l0,0
	c-1.381,0-2.5-1.119-2.5-2.5V8c0-1.381,1.119-2.5,2.5-2.5l0,0c1.381,0,2.5,1.119,2.5,2.5V19z"/>
</svg>
