<?xml version="1.0" encoding="utf-8"?>
<!-- Generator: Adobe Illustrator 15.1.0, SVG Export Plug-In . SVG Version: 6.00 Build 0)  -->
<!DOCTYPE svg PUBLIC "-//W3C//DTD SVG 1.1//EN" "http://www.w3.org/Graphics/SVG/1.1/DTD/svg11.dtd">
<svg version="1.1" id="Layer_1" xmlns="http://www.w3.org/2000/svg" xmlns:xlink="http://www.w3.org/1999/xlink" x="0px" y="0px"
	 width="100px" height="100px" viewBox="0 0 100 100" enable-background="new 0 0 100 100" xml:space="preserve">
<path fill="#FFFFFF" d="M75.344,27.779c1.837,0,3.34,1.503,3.34,3.349c0,1.847-1.503,3.35-3.34,3.35
	c-1.855,0-3.358-1.503-3.358-3.35C71.985,29.282,73.488,27.779,75.344,27.779"/>
<path fill="#FFFFFF" d="M64.34,27.779c1.855,0,3.35,1.503,3.35,3.349c0,1.847-1.494,3.35-3.35,3.35s-3.35-1.503-3.35-3.35
	C60.99,29.282,62.484,27.779,64.34,27.779"/>
<path fill="#FFFFFF" d="M87.479,52.032l3.675,25.079L63.95,59.668c2.83,0,5.585-0.288,8.202-0.808L85.68,69.373l-3.043-14.205
	C84.381,54.249,85.995,53.191,87.479,52.032"/>
<path fill="#FFFFFF" d="M63.95,59.658l-0.742-3.627c15.197-0.641,29.579-10.745,29.579-22.936c0-12.609-12.915-22.834-28.837-22.834
	c-15.374,0-27.928,9.529-28.781,21.535h-4.732C31.3,17.721,45.969,6.522,63.95,6.522c18.538,0,33.55,11.895,33.55,26.573
	c0,7.413-3.822,14.121-10.021,18.937c-1.484,1.169-3.117,2.217-4.843,3.136c-3.155,1.68-6.681,2.941-10.484,3.692
	C69.535,59.38,66.78,59.658,63.95,59.658"/>
<path fill="#FFFFFF" d="M52.946,27.779c1.847,0,3.35,1.503,3.35,3.349c0,1.847-1.503,3.35-3.35,3.35
	c-1.855,0-3.359-1.503-3.359-3.35C49.587,29.282,51.091,27.779,52.946,27.779"/>
<path fill="#FFFFFF" d="M32.905,71.154h14.892c0,0-2.088,9.427-14.892,9.427c-12.795,0-14.892-9.427-14.892-9.427H32.905z"/>
<path fill="#FFFFFF" d="M62.577,63.444c0,16.599-13.444,30.033-30.034,30.033C15.944,93.478,2.5,80.043,2.5,63.444
	c0-16.59,13.444-30.043,30.043-30.043C49.133,33.401,62.577,46.854,62.577,63.444 M7.9,63.444c0,13.611,11.032,24.634,24.643,24.634
	c13.602,0,24.633-11.022,24.633-24.634S46.145,38.811,32.543,38.811C18.932,38.811,7.9,49.833,7.9,63.444"/>
</svg>
