<?xml version="1.0" encoding="utf-8"?>
<!-- Generator: Adobe Illustrator 15.1.0, SVG Export Plug-In . SVG Version: 6.00 Build 0)  -->
<!DOCTYPE svg PUBLIC "-//W3C//DTD SVG 1.1//EN" "http://www.w3.org/Graphics/SVG/1.1/DTD/svg11.dtd">
<svg version="1.1" id="Layer_1" xmlns="http://www.w3.org/2000/svg" xmlns:xlink="http://www.w3.org/1999/xlink" x="0px" y="0px"
	 width="100px" height="100px" viewBox="0 0 100 100" enable-background="new 0 0 100 100" xml:space="preserve">
<path fill="#4D4D4D" d="M49.99,17.303c-12.06,0-21.836,9.781-21.836,21.841c0,12.069,9.776,21.848,21.836,21.848
	c12.072,0,21.843-9.778,21.843-21.848C71.833,27.083,62.062,17.303,49.99,17.303 M51.057,56.441
	c-6.509,0-12.237-4.271-15.575-10.742h31.147C63.289,52.171,57.573,56.441,51.057,56.441"/>
<path fill="#4D4D4D" d="M26.3,47.837c-1.731,1.833-3.94,2.951-6.359,2.951c-3.508,0-6.583-2.299-8.378-5.778h13.892
	c-0.453-1.88-0.696-3.843-0.696-5.867c0-2.582,0.393-5.076,1.113-7.428c-1.86-1.244-4.1-1.973-6.512-1.973
	c-6.481,0-11.738,5.257-11.738,11.745s5.257,11.749,11.738,11.749c3.059,0,5.832-1.178,7.923-3.09
	C26.921,49.395,26.589,48.626,26.3,47.837"/>
<path fill="#4D4D4D" d="M80.633,29.745c-2.412,0-4.656,0.729-6.521,1.977c0.725,2.348,1.122,4.84,1.122,7.424
	c0,2.017-0.252,3.984-0.697,5.866h15.037c-1.784,3.479-4.868,5.776-8.367,5.776c-2.827,0-5.371-1.515-7.188-3.925
	c-0.362,1.126-0.8,2.22-1.312,3.269c2.089,1.919,4.868,3.099,7.925,3.099c6.494,0,11.742-5.257,11.742-11.744
	C92.375,35.002,87.127,29.745,80.633,29.745"/>
<path fill="#4D4D4D" d="M63.17,63.818c-3.928,2.111-8.416,3.305-13.176,3.305c-4.764,0-9.249-1.193-13.178-3.305
	c-8.482,2.231-15.133,7.515-18.186,18.881h62.727C78.31,71.333,71.661,66.05,63.17,63.818"/>
<path fill="#4D4D4D" d="M33.315,58.95c-1.813-2.195-4.162-3.485-6.868-4.196c-2.107,1.131-4.523,1.78-7.083,1.78
	s-4.972-0.641-7.084-1.78C7.717,55.955,4.143,58.796,2.5,64.9h20.222C25.688,62.276,29.222,60.293,33.315,58.95"/>
<path fill="#4D4D4D" d="M77.275,64.905H97.5c-1.64-6.114-5.218-8.955-9.776-10.151c-2.112,1.131-4.528,1.775-7.091,1.775
	c-2.558,0-4.97-0.641-7.081-1.775c-2.699,0.706-5.05,2.005-6.861,4.201C70.777,60.293,74.312,62.281,77.275,64.905"/>
</svg>
