<?xml version="1.0" encoding="utf-8"?>
<!-- Generator: Adobe Illustrator 15.1.0, SVG Export Plug-In . SVG Version: 6.00 Build 0)  -->
<!DOCTYPE svg PUBLIC "-//W3C//DTD SVG 1.1//EN" "http://www.w3.org/Graphics/SVG/1.1/DTD/svg11.dtd">
<svg version="1.1" id="Layer_1" xmlns="http://www.w3.org/2000/svg" xmlns:xlink="http://www.w3.org/1999/xlink" x="0px" y="0px"
	 width="100px" height="100px" viewBox="0 0 100 100" enable-background="new 0 0 100 100" xml:space="preserve">
<path fill="#FFFFFF" d="M50.433,6.704c23.554,0,42.718,19.162,42.718,42.717c0,23.551-19.164,42.718-42.718,42.718
	c-23.553,0-42.717-19.167-42.717-42.718C7.715,25.866,26.879,6.704,50.433,6.704 M50.433,1.958
	c-26.214,0-47.464,21.248-47.464,47.464c0,26.212,21.25,47.464,47.464,47.464c26.215,0,47.464-21.252,47.464-47.464
	C97.896,23.205,76.647,1.958,50.433,1.958"/>
<path fill="#FFFFFF" d="M50.505,36.768c2.403,0,4.353-1.951,4.353-4.353c0-2.406-1.949-4.352-4.353-4.352s-4.353,1.946-4.353,4.352
	C46.152,34.816,48.102,36.768,50.505,36.768"/>
<polygon fill="#FFFFFF" points="69.683,38.701 31.186,38.701 31.186,42.974 44.018,42.974 44.018,70.78 48.294,70.78 48.294,57.95 
	52.572,57.95 52.572,70.78 56.848,70.78 56.848,42.974 69.683,42.974 "/>
</svg>
