<?xml version="1.0" encoding="utf-8"?>
<!-- Generator: Adobe Illustrator 15.1.0, SVG Export Plug-In . SVG Version: 6.00 Build 0)  -->
<!DOCTYPE svg PUBLIC "-//W3C//DTD SVG 1.1//EN" "http://www.w3.org/Graphics/SVG/1.1/DTD/svg11.dtd">
<svg version="1.1" id="Layer_1" xmlns="http://www.w3.org/2000/svg" xmlns:xlink="http://www.w3.org/1999/xlink" x="0px" y="0px"
	 width="100px" height="100px" viewBox="0 0 100 100" enable-background="new 0 0 100 100" xml:space="preserve">
<path fill="#FFFFFF" d="M50,7.282c23.554,0,42.718,19.164,42.718,42.718c0,23.552-19.164,42.719-42.718,42.719
	S7.282,73.552,7.282,50C7.282,26.446,26.446,7.282,50,7.282 M50,2.535C23.786,2.535,2.536,23.785,2.536,50
	c0,26.213,21.25,47.465,47.464,47.465S97.464,76.213,97.464,50C97.464,23.785,76.214,2.535,50,2.535"/>
<polygon fill="#FFFFFF" points="69.277,39.886 60.974,44.806 60.974,54.942 69.277,59.89 71.358,59.89 71.358,39.886 "/>
<path fill="#FFFFFF" d="M28.642,41.861v16.273c0,2.237,1.811,4.048,4.041,4.048H58.95V37.817H32.683
	C30.452,37.817,28.642,39.626,28.642,41.861"/>
</svg>
