<?xml version="1.0" encoding="utf-8"?>
<!-- Generator: Adobe Illustrator 15.1.0, SVG Export Plug-In . SVG Version: 6.00 Build 0)  -->
<!DOCTYPE svg PUBLIC "-//W3C//DTD SVG 1.1//EN" "http://www.w3.org/Graphics/SVG/1.1/DTD/svg11.dtd">
<svg version="1.1" id="Layer_1" xmlns="http://www.w3.org/2000/svg" xmlns:xlink="http://www.w3.org/1999/xlink" x="0px" y="0px"
	 width="100px" height="30px" viewBox="0 0 100 30" enable-background="new 0 0 100 30" xml:space="preserve">
<g>
	<path fill="#4D4D4E" d="M10.027,12.236l1.166,13.017c-1.41,0.127-2.819,0.252-4.229,0.38c-1.444,0.125,0.13-1.285,0.073-1.919
		c-0.089-0.996-0.178-1.992-0.268-2.989c-0.191-2.132-0.382-4.264-0.573-6.395c-0.072-0.778-1.979-1.572-0.072-1.743
		C7.426,12.47,8.727,12.353,10.027,12.236L10.027,12.236z M10.826,12.165l3.618-0.324l0.303,3.376
		c0.161,1.806-1.87-1.262-2.048-1.393C11.804,13.167,10.523,13.669,10.826,12.165L10.826,12.165z M11.403,19.111l-0.099-1.106
		c0.607-0.383,1.814-3.584,2.015-1.347c0.105,1.177,0.21,2.354,0.316,3.531C13.83,22.307,12.018,19.211,11.403,19.111
		C11.403,19.111,11.71,19.161,11.403,19.111z M12.002,25.181l-0.093-1.03c1.967-0.5,1.717-1.978,2.728-3.199
		c0.803-0.983,0.932,2.017,0.949,2.211c0.091,1.017,0.551,1.647-0.531,1.745C14.037,24.998,13.02,25.09,12.002,25.181L12.002,25.181
		z"/>
	<path fill="#4D4D4E" d="M23.5,20.785L22.945,24.2l-2.361,0.211c-0.898-2.366-1.796-4.732-2.694-7.098
		c-0.473-1.246-0.945-2.491-1.418-3.736c-0.271-0.716-1.94-1.745-0.093-1.91c1.073-0.096,2.878-0.646,3.901-0.35
		c1.841-0.164,0.165,1.138,0.506,2.069C21.69,15.853,22.595,18.319,23.5,20.785L23.5,20.785z M23.719,19.392l-0.637-1.75
		c0.184-1.126,1.559-5.224-0.188-5.53c-1.079-0.276,0.053-1.034,0.467-1.071c0.679-0.061,1.358-0.122,2.037-0.182
		c1.144-0.104,0.841,0.927,0.089,1.203C23.923,13.023,23.979,17.822,23.719,19.392L23.719,19.392z"/>
	<path fill="#4D4D4E" d="M33.092,23.29c-1.413,0.127-2.825,0.255-4.238,0.38c-1.444,0.131,0.129-1.286,0.072-1.918
		c-0.089-0.996-0.179-1.992-0.268-2.989c-0.191-2.132-0.382-4.263-0.574-6.395c-0.084-0.962-1.819-1.587,0.185-1.767
		c1.296-0.116,2.592-0.232,3.888-0.349c1.446-0.127-0.129,1.285-0.072,1.918c0.089,0.997,0.179,1.993,0.268,2.989
		c0.191,2.132,0.382,4.264,0.574,6.396C32.99,22.274,34.936,23.113,33.092,23.29L33.092,23.29z"/>
	<path fill="#4D4D4E" d="M39.205,9.621l1.167,13.017c-1.41,0.127-2.819,0.255-4.229,0.379c-1.442,0.131,0.13-1.288,0.073-1.919
		c-0.089-0.996-0.178-1.992-0.268-2.988c-0.191-2.132-0.382-4.264-0.573-6.396c-0.072-0.777-1.979-1.572-0.072-1.743
		C36.604,9.854,37.904,9.738,39.205,9.621L39.205,9.621z M41.941,19.748l-0.674-7.524c-0.122-1.35-1.53-1.401-1.263-2.675
		c6.943-0.62,7.997,12.406,1.167,13.017c-0.029-0.318-0.151-0.719-0.093-1.03C41.944,21.212,42.02,20.621,41.941,19.748
		C41.941,19.748,41.972,20.085,41.941,19.748z"/>
	<path fill="#4D4D4E" d="M51.128,8.552l1.167,13.017c-1.41,0.126-2.819,0.25-4.229,0.379c-1.445,0.131,0.128-1.286,0.071-1.919
		c-0.089-0.996-0.178-1.992-0.268-2.988c-0.191-2.132-0.382-4.264-0.573-6.396c-0.068-0.777-1.981-1.573-0.071-1.744
		C48.526,8.785,49.827,8.669,51.128,8.552L51.128,8.552z M51.927,8.48l3.618-0.324l0.303,3.376c0.161,1.805-1.87-1.262-2.049-1.393
		C52.904,9.483,51.622,9.986,51.927,8.48L51.927,8.48z M52.504,15.427l-0.099-1.106c0.606-0.383,1.813-3.584,2.014-1.348
		c0.106,1.178,0.212,2.355,0.317,3.533C54.923,18.623,53.123,15.527,52.504,15.427C52.504,15.427,52.81,15.477,52.504,15.427z
		 M53.102,21.497l-0.092-1.03c1.13-0.29,2.02-1.061,2.396-2.188c0.162-0.484,0.993-2.064,1.13-0.482
		c0.436,0.717,0.226,2.512,0.303,3.366C55.593,21.273,54.347,21.386,53.102,21.497L53.102,21.497z"/>
	<path fill="#4D4D4E" d="M62.099,7.569l5.566,8.383l0.378,4.205l-2.451,0.22c-1.335-1.995-2.669-3.99-4.004-5.986
		c-0.791-1.183-2.521-5.127-4.157-5.385c-1.304-0.333,0.703-1.082,1.078-1.116C59.705,7.783,60.902,7.676,62.099,7.569L62.099,7.569
		z M58.638,11.253l1.102,1.594l0.458,5.111c0.077,0.86,0.491,1.558,1.325,1.861c1.489,0.735-2.314,1.13-2.521,1.148
		c-1.88,0.168,0.117-1.541,0.22-2.118c0.135-0.757-0.052-1.657-0.119-2.41C58.947,14.71,58.793,12.982,58.638,11.253L58.638,11.253z
		 M67.528,14.426l-1.105-1.622l-0.236-2.641c-0.066-0.747-1.82-2.354-1.424-2.713c0.519-0.477,2.097-0.309,2.741-0.366
		c1.451-0.13-0.429,2.282-0.336,3.316C67.288,11.742,67.408,13.084,67.528,14.426L67.528,14.426z"/>
	<path fill="#4D4D4E" d="M74.275,6.218l0.104,1.154c-2.027,0.516-0.304,8.424-0.156,10.05c0.112,1.301,1.556,0.857,1.266,2.327
		C68.131,20.412,67.32,6.418,74.275,6.218L74.275,6.218z M75.09,7.317l-0.104-1.153c0.797,0.065,2.483,0.995,2.848-0.034
		c0.523-1.452,1.034,1.349,1.046,1.482c0.083,0.925,0.166,1.85,0.249,2.775c0.159,1.728-1.128,0.012-1.323-0.463
		C77.351,8.819,76.429,7.387,75.09,7.317C75.09,7.317,75.362,7.332,75.09,7.317z M76.225,19.684L76.12,18.52
		c0.867-0.147,1.659-0.745,2.093-1.499c0.186-0.323,0.504-2.271,1.248-1.53C80.906,16.943,77.363,19.525,76.225,19.684
		C76.225,19.684,76.744,19.611,76.225,19.684z"/>
	<path fill="#4D4D4E" d="M85.011,5.515l1.167,13.017c-1.409,0.126-2.819,0.25-4.229,0.379c-1.445,0.125,0.129-1.283,0.071-1.919
		c-0.089-0.996-0.179-1.992-0.268-2.989c-0.191-2.132-0.382-4.264-0.573-6.396c-0.068-0.777-1.982-1.572-0.071-1.743
		C82.409,5.748,83.71,5.632,85.011,5.515L85.011,5.515z M85.81,5.443l3.618-0.324l0.303,3.376c0.161,1.805-1.87-1.262-2.049-1.393
		C86.787,6.446,85.505,6.949,85.81,5.443L85.81,5.443z M86.387,12.39l-0.1-1.106c0.608-0.383,1.814-3.583,2.015-1.347
		c0.105,1.177,0.211,2.354,0.316,3.532C88.812,15.585,87.002,12.489,86.387,12.39C86.387,12.39,86.692,12.439,86.387,12.39z
		 M86.984,18.459l-0.092-1.03c1.131-0.288,2.018-1.062,2.396-2.188c0.162-0.483,0.993-2.065,1.13-0.482
		c0.436,0.716,0.226,2.512,0.303,3.367C89.476,18.236,88.229,18.348,86.984,18.459L86.984,18.459z"/>
</g>
<polygon fill="none" stroke="#4D4D4E" stroke-miterlimit="10" points="94.512,20.815 3.211,29 1.488,9.785 92.789,1.601 
	94.512,20.815 "/>
</svg>
