<?xml version="1.0" encoding="utf-8"?>
<!-- Generator: Adobe Illustrator 15.1.0, SVG Export Plug-In . SVG Version: 6.00 Build 0)  -->
<!DOCTYPE svg PUBLIC "-//W3C//DTD SVG 1.1//EN" "http://www.w3.org/Graphics/SVG/1.1/DTD/svg11.dtd">
<svg version="1.1" id="Layer_1" xmlns="http://www.w3.org/2000/svg" xmlns:xlink="http://www.w3.org/1999/xlink" x="0px" y="0px"
	 width="100px" height="100px" viewBox="0 0 100 100" enable-background="new 0 0 100 100" xml:space="preserve">
<path fill="#4D4D4D" d="M45.029,65.128l-0.2-2.601c-0.6-5.3,1.2-11.301,6.201-17.301c4.5-5.3,7-9.2,7-13.701
	c0-5.1-3.199-8.5-9.5-8.601c-3.601,0-7.601,1.2-10.101,3.1l-2.4-6.3c3.4-2.4,9.001-4,14.301-4c11.501,0,16.701,7.1,16.701,14.701
	c0,6.8-3.799,11.701-8.6,17.401c-4.4,5.201-6,9.701-5.701,14.801l0.201,2.5H45.029z M42.928,79.229c0-3.699,2.5-6.301,5.9-6.301
	c3.601,0,5.9,2.602,5.9,6.301c0,3.5-2.299,6.201-6,6.201C45.329,85.43,42.928,82.729,42.928,79.229z"/>
</svg>
