<?xml version="1.0" encoding="utf-8"?>
<!-- Generator: Adobe Illustrator 15.1.0, SVG Export Plug-In . SVG Version: 6.00 Build 0)  -->
<!DOCTYPE svg PUBLIC "-//W3C//DTD SVG 1.1//EN" "http://www.w3.org/Graphics/SVG/1.1/DTD/svg11.dtd">
<svg version="1.1" id="Layer_1" xmlns="http://www.w3.org/2000/svg" xmlns:xlink="http://www.w3.org/1999/xlink" x="0px" y="0px"
	 width="100px" height="100px" viewBox="0 0 100 100" enable-background="new 0 0 100 100" xml:space="preserve">
<path id="Home" fill="#4D4D4D" d="M78.204,90.072h8.494V50.821h6.422c1.887,0,3.566-1.208,4.154-3.004
	c0.598-1.789-0.021-3.763-1.536-4.886L81.601,32.395V11.663h-17.25v7.88L52.614,10.8c-0.775-0.583-1.693-0.871-2.618-0.871
	c-0.917,0-1.835,0.289-2.611,0.871L4.264,42.93c-1.513,1.124-2.136,3.098-1.541,4.886c0.598,1.796,2.271,3.004,4.16,3.004h6.424
	v39.251h26.083v-32.11h21.229v7.298v3.201v21.611h2.562H78.204z"/>
</svg>
