<?xml version="1.0" encoding="utf-8"?>
<!-- Generator: Adobe Illustrator 15.1.0, SVG Export Plug-In . SVG Version: 6.00 Build 0)  -->
<!DOCTYPE svg PUBLIC "-//W3C//DTD SVG 1.1//EN" "http://www.w3.org/Graphics/SVG/1.1/DTD/svg11.dtd">
<svg version="1.1" id="Layer_1" xmlns="http://www.w3.org/2000/svg" xmlns:xlink="http://www.w3.org/1999/xlink" x="0px" y="0px"
	 width="100px" height="100px" viewBox="0 0 100 100" enable-background="new 0 0 100 100" xml:space="preserve">
<path fill="#4D4D4D" d="M87.41,21.969H73.543V20.29c0-7.652-6.224-13.876-13.876-13.876H40.328c-7.647,0-13.869,6.224-13.869,13.876
	v1.679H12.588C7.014,21.969,2.5,26.488,2.5,32.052v47.924c0,5.202,3.952,9.43,9.007,9.983c-0.102,0.279-0.182,0.577-0.182,0.894
	c0,1.504,1.22,2.733,2.731,2.733h4.838c1.506,0,2.736-1.229,2.736-2.733c0-0.283-0.083-0.539-0.166-0.785h57.072
	c-0.085,0.246-0.17,0.502-0.17,0.785c0,1.504,1.239,2.733,2.733,2.733h4.843c1.504,0,2.725-1.229,2.725-2.733
	c0-0.316-0.076-0.614-0.175-0.894c5.056-0.554,9.009-4.781,9.009-9.983V32.052C97.502,26.488,92.985,21.969,87.41,21.969
	 M79.162,25.116h4.729v60.336h-4.729V25.116z M34.029,20.29c0-3.479,2.828-6.307,6.299-6.307h19.339
	c3.477,0,6.305,2.828,6.305,6.307v1.679H34.029V20.29z M16.104,25.116h4.737v60.336h-4.737V25.116z"/>
</svg>
