<?xml version="1.0" encoding="utf-8"?>
<!-- Generator: Adobe Illustrator 15.1.0, SVG Export Plug-In . SVG Version: 6.00 Build 0)  -->
<!DOCTYPE svg PUBLIC "-//W3C//DTD SVG 1.1//EN" "http://www.w3.org/Graphics/SVG/1.1/DTD/svg11.dtd">
<svg version="1.1" id="Layer_1" xmlns="http://www.w3.org/2000/svg" xmlns:xlink="http://www.w3.org/1999/xlink" x="0px" y="0px"
	 width="100px" height="100px" viewBox="0 0 100 100" enable-background="new 0 0 100 100" xml:space="preserve">
<g>
	<path fill-rule="evenodd" clip-rule="evenodd" fill="#4D4D4D" d="M27.69,2.571c1.536,2.789,0.892,7.461,0.892,12.037
		c0,4.087-1.063,9.192,1.337,11.146c3.146-1.29,1.783-7.189,1.783-11.591c0-4.327-1.048-9.711,1.337-11.591
		c3.134,1.306,1.783,7.244,1.783,12.037c0,4.218-1.577,10.666,2.229,11.146c1.619-2.571,0.892-7.509,0.892-12.037
		c0-4.165-1.328-9.786,1.783-11.145c3.146,1.29,1.783,7.189,1.783,11.591c0,4.327-1.048,9.712,1.338,11.591
		c3.146-1.29,1.783-7.189,1.783-11.591c0-4.327-1.048-9.711,1.337-11.591c3.563-0.297,2.207,4.559,2.229,6.687
		c0.084,8.039-0.063,18.635,0,26.749c-1.466,2.101-3.733,3.399-6.688,4.012c0,18.279,0,36.557,0,54.836
		c-1.555,2.779-7.406,4.154-9.362,0.445c-2.486-4.713-0.446-17.869-0.446-27.195c0-10.807,0-20.989,0-27.64
		c-2.562-1.154-5.396-2.035-6.687-4.458c0.292-11.001-0.588-23.176,0.446-33.436C26.204,2.571,26.947,2.571,27.69,2.571z"/>
	<path fill-rule="evenodd" clip-rule="evenodd" fill="#4D4D4D" d="M74.501,6.138c0.742,28.834,0.742,60.774,0,89.608
		c-15.648,9.813-7.198-24.926-9.362-35.219c-0.769-1.313-4.581,0.42-5.35-0.891c0-17.239,0-34.478,0-51.716
		C61.072,2.001,71.571,0.777,74.501,6.138z"/>
</g>
</svg>
