<?xml version="1.0" encoding="utf-8"?>
<!-- Generator: Adobe Illustrator 15.1.0, SVG Export Plug-In . SVG Version: 6.00 Build 0)  -->
<!DOCTYPE svg PUBLIC "-//W3C//DTD SVG 1.1//EN" "http://www.w3.org/Graphics/SVG/1.1/DTD/svg11.dtd">
<svg version="1.1" id="Layer_1" xmlns="http://www.w3.org/2000/svg" xmlns:xlink="http://www.w3.org/1999/xlink" x="0px" y="0px"
	 width="100px" height="100px" viewBox="0 0 100 100" enable-background="new 0 0 100 100" xml:space="preserve">
<path fill-rule="evenodd" clip-rule="evenodd" fill="#4D4D4D" d="M5.03,20.267c28.258-1.476,59.256-0.211,88.567-0.633
	c0.983,2.062-2.485,2.811-3.796,3.796c-12.164,9.149-27.226,20.027-40.487,28.468C34.897,41.01,20.014,30.588,5.03,20.267z"/>
<path fill-rule="evenodd" clip-rule="evenodd" fill="#4D4D4D" d="M96.761,22.797c1.476,16.238,0.212,35.216,0.633,52.508
	c-2.875,0.557-4.81-3.846-6.959-6.326c-6.687-7.717-15.195-17.106-22.142-24.672C77.187,36.541,87.941,30.636,96.761,22.797z"/>
<path fill-rule="evenodd" clip-rule="evenodd" fill="#4D4D4D" d="M2.5,23.43c9.907,6.331,19.006,13.469,28.468,20.244
	C22.074,54.603,11.638,67.361,2.5,75.938C2.5,58.436,2.5,40.932,2.5,23.43z"/>
<path fill-rule="evenodd" clip-rule="evenodd" fill="#4D4D4D" d="M49.314,56.326c5.259-3.387,10.399-6.892,15.183-10.754
	C75.053,56.315,84.076,68.59,94.23,79.733c-28.047,1.476-58.833,0.211-87.935,0.633c-0.614-1.726,2.783-5.535,5.061-8.225
	c7.052-8.326,16.198-17.479,22.774-26.57C39.548,48.8,44.587,52.407,49.314,56.326z"/>
</svg>
