<?xml version="1.0" encoding="utf-8"?>
<!-- Generator: Adobe Illustrator 15.1.0, SVG Export Plug-In . SVG Version: 6.00 Build 0)  -->
<!DOCTYPE svg PUBLIC "-//W3C//DTD SVG 1.1//EN" "http://www.w3.org/Graphics/SVG/1.1/DTD/svg11.dtd">
<svg version="1.1" id="Layer_1" xmlns="http://www.w3.org/2000/svg" xmlns:xlink="http://www.w3.org/1999/xlink" x="0px" y="0px"
	 width="100px" height="100px" viewBox="0 0 100 100" enable-background="new 0 0 100 100" xml:space="preserve">
<path fill-rule="evenodd" clip-rule="evenodd" fill="#4D4D4D" d="M30.52,32.011C27.631,49.437,44.236,73.057,66.53,69.285
	c1.27-3.784,4.24-5.868,6.949-8.213c4.151,1.055,7.768,6.504,12.636,11.372c3.598,3.598,11.253,8.663,11.372,12.003
	c0.195,5.511-8.203,6.194-8.845,9.477c-4.272,1.935-12.958,3.96-20.849,1.896c-24.62-6.443-61.151-41.34-64.44-69.495
	C2.105,15.637,5.269,11.075,9.04,6.74c1.623-1.865,3.032-4.274,5.686-5.054c3.713,1.688,7.138,6.506,12.003,11.372
	c3.456,3.456,11.253,8.671,11.372,12.004C38.198,27.791,33.713,32.224,30.52,32.011z"/>
</svg>
