<?xml version="1.0" encoding="utf-8"?>
<!-- Generator: Adobe Illustrator 15.1.0, SVG Export Plug-In . SVG Version: 6.00 Build 0)  -->
<!DOCTYPE svg PUBLIC "-//W3C//DTD SVG 1.1//EN" "http://www.w3.org/Graphics/SVG/1.1/DTD/svg11.dtd">
<svg version="1.1" id="Layer_1" xmlns="http://www.w3.org/2000/svg" xmlns:xlink="http://www.w3.org/1999/xlink" x="0px" y="0px"
	 width="100px" height="100px" viewBox="0 0 100 100" enable-background="new 0 0 100 100" xml:space="preserve">
<polygon fill="#FFFFFF" stroke="#000000" stroke-miterlimit="10" points="34.917,27.47 34.917,73.156 74.486,50.313 "/>
<path fill="#FFFFFF" stroke="#000000" stroke-miterlimit="10" d="M49.995,2.5C23.809,2.5,2.503,23.81,2.503,50.002
	c0,26.191,21.306,47.498,47.492,47.498c26.192,0,47.499-21.307,47.499-47.498C97.494,23.81,76.188,2.5,49.995,2.5 M49.995,92.492
	c-23.427,0-42.483-19.063-42.483-42.49c0-23.43,19.057-42.495,42.483-42.495c23.429,0,42.485,19.065,42.485,42.495
	C92.48,73.43,73.424,92.492,49.995,92.492"/>
</svg>
