<?xml version="1.0" encoding="utf-8"?>
<!-- Generator: Adobe Illustrator 15.1.0, SVG Export Plug-In . SVG Version: 6.00 Build 0)  -->
<!DOCTYPE svg PUBLIC "-//W3C//DTD SVG 1.1//EN" "http://www.w3.org/Graphics/SVG/1.1/DTD/svg11.dtd">
<svg version="1.1" id="Layer_1" xmlns="http://www.w3.org/2000/svg" xmlns:xlink="http://www.w3.org/1999/xlink" x="0px" y="0px"
	 width="100px" height="100px" viewBox="0 0 100 100" enable-background="new 0 0 100 100" xml:space="preserve">
<path fill="#4D4D4D" d="M40.274,10.615c-14.526,0-26.302,11.781-26.302,26.308c0,14.537,11.776,26.316,26.302,26.316
	c14.541,0,26.31-11.778,26.31-26.316C66.584,22.395,54.815,10.615,40.274,10.615 M41.559,57.758c-7.84,0-14.74-5.146-18.76-12.939
	h37.517C56.293,52.613,49.407,57.758,41.559,57.758"/>
<path fill="#4D4D4D" d="M77.184,25.602c-2.905,0-5.608,0.878-7.855,2.381c0.874,2.828,1.354,5.83,1.354,8.942
	c0,2.43-0.304,4.799-0.84,7.066h18.112c-2.149,4.191-5.864,6.958-10.079,6.958c-3.405,0-6.469-1.825-8.657-4.729
	c-0.437,1.356-0.964,2.674-1.581,3.938c2.517,2.311,5.864,3.732,9.546,3.732c7.822,0,14.144-6.331,14.144-14.145
	C91.327,31.934,85.006,25.602,77.184,25.602"/>
<path fill="#4D4D4D" d="M56.149,66.644c-4.73,2.543-10.137,3.98-15.87,3.98c-5.739,0-11.141-1.438-15.874-3.98
	C14.189,69.33,6.178,75.694,2.5,89.386h75.556C74.387,75.694,66.377,69.331,56.149,66.644"/>
<path fill="#4D4D4D" d="M73.14,67.951H97.5c-1.976-7.363-6.284-10.785-11.774-12.227c-2.545,1.362-5.455,2.139-8.542,2.139
	c-3.08,0-5.986-0.771-8.528-2.139c-3.251,0.851-6.083,2.415-8.264,5.061C65.313,62.396,69.571,64.792,73.14,67.951"/>
</svg>
