<?xml version="1.0" encoding="utf-8"?>
<!-- Generator: Adobe Illustrator 15.1.0, SVG Export Plug-In . SVG Version: 6.00 Build 0)  -->
<!DOCTYPE svg PUBLIC "-//W3C//DTD SVG 1.1//EN" "http://www.w3.org/Graphics/SVG/1.1/DTD/svg11.dtd">
<svg version="1.1" id="Layer_1" xmlns="http://www.w3.org/2000/svg" xmlns:xlink="http://www.w3.org/1999/xlink" x="0px" y="0px"
	 width="100px" height="100px" viewBox="0 0 100 100" enable-background="new 0 0 100 100" xml:space="preserve">
<path fill="#4D4D4E" d="M94.563,23.5L78.438,37.625l-8.5-5.125l-0.608-0.165c4.788-0.398,8.546-4.199,8.546-8.835
	c0-4.901-4.197-8.875-9.375-8.875s-9.375,3.974-9.375,8.875c0,2.902,1.479,5.472,3.754,7.091l-8.191-2.216L43.063,31l-4.5,9.5
	l-3.25-1.375L30.188,43.5l8.625,4.125L48.438,36l3.375,1.125l-4.75,19.5l-13.25,11.25L15.688,52.5L6.063,65l11.25-2.75l13,15.25
	l24.25-8.75l13-3.125l8.125,21.25L90.313,79.5l-11.125-2.25l-3.5-19l-14.75-2l6.625-15l13.875,4.875L92.813,32.75l3.125,0.75
	l0.75-12.875L94.563,23.5z"/>
</svg>
