<?xml version="1.0" encoding="utf-8"?>
<!-- Generator: Adobe Illustrator 15.1.0, SVG Export Plug-In . SVG Version: 6.00 Build 0)  -->
<!DOCTYPE svg PUBLIC "-//W3C//DTD SVG 1.1//EN" "http://www.w3.org/Graphics/SVG/1.1/DTD/svg11.dtd">
<svg version="1.1" id="Layer_1" xmlns="http://www.w3.org/2000/svg" xmlns:xlink="http://www.w3.org/1999/xlink" x="0px" y="0px"
	 width="100px" height="100px" viewBox="0 0 100 100" enable-background="new 0 0 100 100" xml:space="preserve">
<path fill-rule="evenodd" clip-rule="evenodd" fill="#4D4D4D" d="M60.169,2.8C78.7-0.723,83.283,27.866,64.618,29.494
	C48.728,30.881,42.566,6.147,60.169,2.8z"/>
<path fill-rule="evenodd" clip-rule="evenodd" fill="#4D4D4D" d="M81.778,38.392c1.684,4.249,4.538,7.327,6.355,11.44
	c-5.297,6.265-14.973,11.134-26.693,8.898c0.288,0.984-0.374,2.757,0,3.813c1.35,3.817,10.82,7.331,13.982,10.169
	c5.401,4.847,7.251,8.597,10.169,13.982c-3.453,4.386-8.071,7.606-12.711,10.805C67.992,87.982,61.658,79.909,50,77.162
	C41.206,85.739,32.611,94.517,18.222,97.5c-1.844-4.936-3.927-9.632-6.356-13.982c9.836-3.767,20.432-8.193,22.881-19.067
	c0.684-3.036-0.213-6.335,0-8.897c0.758-9.118,4.273-18.082,11.44-23.516c9.743,0.996,15.268,12.646,26.694,10.805
	C76.472,42.263,78.043,39.955,81.778,38.392z"/>
</svg>
