<?xml version="1.0" encoding="utf-8"?>
<!-- Generator: Adobe Illustrator 15.1.0, SVG Export Plug-In . SVG Version: 6.00 Build 0)  -->
<!DOCTYPE svg PUBLIC "-//W3C//DTD SVG 1.1//EN" "http://www.w3.org/Graphics/SVG/1.1/DTD/svg11.dtd">
<svg version="1.1" id="Layer_1" xmlns="http://www.w3.org/2000/svg" xmlns:xlink="http://www.w3.org/1999/xlink" x="0px" y="0px"
	 width="100px" height="100px" viewBox="0 0 100 100" enable-background="new 0 0 100 100" xml:space="preserve">
<path fill="#FFFFFF" d="M67.184,60.311h-3.632l-1.259-1.25c4.462-5.204,7.168-11.944,7.168-19.332
	c0-16.42-13.311-29.731-29.73-29.731S10,23.309,10,39.729s13.311,29.73,29.73,29.73c7.389,0,14.124-2.705,19.324-7.165l1.264,1.256
	v3.623L83.18,90.002L90,83.181L67.184,60.311z M39.73,60.311c-11.367,0-20.583-9.217-20.583-20.582
	c0-11.366,9.215-20.583,20.583-20.583c11.368,0,20.584,9.217,20.584,20.583C60.314,51.094,51.099,60.311,39.73,60.311"/>
</svg>
