<?xml version="1.0" encoding="utf-8"?>
<!-- Generator: Adobe Illustrator 15.1.0, SVG Export Plug-In . SVG Version: 6.00 Build 0)  -->
<!DOCTYPE svg PUBLIC "-//W3C//DTD SVG 1.1//EN" "http://www.w3.org/Graphics/SVG/1.1/DTD/svg11.dtd">
<svg version="1.1" id="Layer_1" xmlns="http://www.w3.org/2000/svg" xmlns:xlink="http://www.w3.org/1999/xlink" x="0px" y="0px"
	 width="100px" height="100px" viewBox="0 0 100 100" enable-background="new 0 0 100 100" xml:space="preserve">
<path fill="#4D4D4D" d="M94.36,34.699c0,0,0.769-0.338-3.731-8.303c-4.499-7.968-5.169-7.468-5.169-7.468
	c-8.716,2.878-13.303,3.162-13.303,3.162l0.016,0.026c-2.793-2.283-5.927-4.141-9.329-5.494h0.253c0,0-2.036-4.175-3.911-13.276
	c0,0,0.092-0.845-8.951-0.845c-9.053,0-8.958,0.845-8.958,0.845c-1.713,8.336-3.561,12.529-3.857,13.176
	c-0.221,0.085-0.443,0.165-0.66,0.255c-3.018,1.239-5.821,2.907-8.359,4.901l0.03-0.052c0,0-4.569-0.386-13.23-3.451
	c0,0-0.665-0.518-5.329,7.35c-4.662,7.87-3.901,8.218-3.901,8.218c6.729,6.329,9.21,10.244,9.21,10.244l0.026-0.047
	c-0.327,1.969-0.518,3.994-0.518,6.059c0,1.793,0.134,3.556,0.387,5.291l-0.016-0.033c0,0-2.559,3.867-9.421,10.047
	c0,0-0.766,0.335,3.736,8.298c4.492,7.963,5.162,7.474,5.162,7.474c8.728-2.881,13.31-3.159,13.31-3.159l-0.016-0.047
	c2.791,2.294,5.932,4.154,9.332,5.51H36.91c0,0,2.036,4.175,3.909,13.282c0,0-0.101,0.84,8.95,0.84c9.044,0,8.953-0.84,8.953-0.84
	c1.716-8.329,3.556-12.529,3.864-13.18c3.269-1.263,6.283-3.005,9.01-5.133l-0.031,0.031c0,0,4.571,0.381,13.235,3.447
	c0,0,0.66,0.521,5.334-7.354c4.659-7.875,3.901-8.215,3.901-8.215c-6.735-6.329-9.214-10.241-9.214-10.241l-0.021,0.03
	c0.335-1.968,0.505-3.989,0.505-6.047c0-1.793-0.123-3.556-0.37-5.278l0.01,0.016C84.944,44.736,87.506,40.874,94.36,34.699
	 M50.003,80.074C33.462,80.074,20,66.581,20,49.999c0-16.588,13.462-30.083,30.003-30.083s29.993,13.496,29.993,30.083
	C79.996,66.581,66.545,80.074,50.003,80.074 M50.003,23.479c-14.583,0-26.448,11.9-26.448,26.52
	c0,14.624,11.865,26.519,26.448,26.519c14.583,0,26.437-11.896,26.437-26.519C76.44,35.379,64.586,23.479,50.003,23.479
	 M50.003,66.38c-9.025,0-16.346-7.329-16.346-16.381c0-9.045,7.321-16.387,16.346-16.387c9.027,0,16.335,7.342,16.335,16.387
	C66.339,59.051,59.03,66.38,50.003,66.38"/>
</svg>
