<?xml version="1.0" encoding="utf-8"?>
<!-- Generator: Adobe Illustrator 15.1.0, SVG Export Plug-In . SVG Version: 6.00 Build 0)  -->
<!DOCTYPE svg PUBLIC "-//W3C//DTD SVG 1.1//EN" "http://www.w3.org/Graphics/SVG/1.1/DTD/svg11.dtd">
<svg version="1.1" id="Layer_1" xmlns="http://www.w3.org/2000/svg" xmlns:xlink="http://www.w3.org/1999/xlink" x="0px" y="0px"
	 width="100px" height="100px" viewBox="0 0 100 100" enable-background="new 0 0 100 100" xml:space="preserve">
<path fill="#4D4D4D" d="M27.142,3.029C18.059,2.907,12,9.289,12,9.289V79h32.571l8.96-11.535l0.122,24.548
	c0,0,6.26,6.076,15.957,6.076s17.061-5.694,17.061-5.694L87.529,23h-33.63L44,34.327V8.921C44,8.921,36.224,3.151,27.142,3.029z
	 M62,30h18v6h-6v6h6v8H68v5h12v8h-6v6h6v7H68v6h12v5.472c0,0-5.626,2.824-9.797,2.824c-4.174,0-8.203-1.965-8.203-1.965V30z
	 M37,13.094V20H25v6h12v7h-6v6h6v8H25v5h12v8h-6v6h6v6H19V12.234c0,0,4.03-1.965,8.202-1.965C31.375,10.27,37,13.094,37,13.094z"/>
</svg>
