<?xml version="1.0" encoding="utf-8"?>
<!-- Generator: Adobe Illustrator 15.1.0, SVG Export Plug-In . SVG Version: 6.00 Build 0)  -->
<!DOCTYPE svg PUBLIC "-//W3C//DTD SVG 1.1//EN" "http://www.w3.org/Graphics/SVG/1.1/DTD/svg11.dtd">
<svg version="1.1" id="Layer_1" xmlns="http://www.w3.org/2000/svg" xmlns:xlink="http://www.w3.org/1999/xlink" x="0px" y="0px"
	 width="100px" height="100px" viewBox="0 0 100 100" enable-background="new 0 0 100 100" xml:space="preserve">
<path fill="#4D4D4D" d="M97.499,28.142C97.621,19.059,91.239,13,91.239,13H22v32.1l11.3,8.96L8.634,54.182
	c0,0-6.135,6.26-6.135,15.957s5.901,17.061,5.901,17.061L78,88.058v-33.63L66.201,45h25.406C91.607,45,97.377,37.224,97.499,28.142z
	 M71,63v18h-6v-6h-6v6h-8V69h-5v12h-8v-6h-6v6h-7V69h-6v12h-5.943c0,0-2.824-5.626-2.824-9.797c0-4.174,1.965-8.203,1.965-8.203H71z
	 M87.435,38H81V26h-6v12h-7v-6h-6v6h-8V26h-5v12h-8v-6h-6v6h-6V20h59.294c0,0,1.965,4.03,1.965,8.202
	C90.259,32.375,87.435,38,87.435,38z"/>
</svg>
